<?xml version="1.0" encoding="utf-8"?>
<!-- Generator: Adobe Illustrator 15.0.0, SVG Export Plug-In . SVG Version: 6.00 Build 0)  -->
<!DOCTYPE svg PUBLIC "-//W3C//DTD SVG 1.1//EN" "http://www.w3.org/Graphics/SVG/1.1/DTD/svg11.dtd">
<svg version="1.1" id="Logo_3" xmlns="http://www.w3.org/2000/svg" xmlns:xlink="http://www.w3.org/1999/xlink" x="0px" y="0px"
	 width="442px" height="89px" viewBox="0 0 442 89" enable-background="new 0 0 442 89" xml:space="preserve">
<g id="Group" transform="translate(2.887 1.941)">
	<path id="Fill_9" fill="#38B449" d="M42.294,84.909L42.294,84.909L0,42.453L32.435,9.964l8.3-1.637L35.08,7.315l3.265-3.271
		L41.5,6.462L39.389,3l3-3l2.858,2.877l-2.189,3.585l3.265-2.5l3.3,3.323l-5.8,1.041L52.322,10l32.235,32.45L42.3,84.907
		L42.294,84.909z M42.364,9.6L38.1,32.383l4.226,22.988l4.261-22.776L42.364,9.6L42.364,9.6z M43.471,9.153L43.471,9.153L56.8,28.3
		l19.129,12.9L62.6,22.05L43.471,9.153z M41.088,9.153L21.959,22.05L8.627,41.2l19.13-12.9L41.088,9.153z"/>
	<path id="Fill_10" fill="#008B40" d="M0,42.434l42.294,13.145l42.262-13.145L42.294,84.948L0,42.434z"/>
	<path id="Fill_11" fill="#FEFEFE" d="M40.019,59.354v5.8h-5.757v4.554h5.757v5.8h4.519v-5.8h5.757v-4.554h-5.757v-5.8H40.019z"/>
	<path id="Fill_33" fill="#231F20" d="M116.559,22.479h8.281v41.15h-8.171L116.559,22.479z"/>
	<path id="Fill_35" fill="#231F20" d="M142.017,22.479h8.285v41.15h-8.175L142.017,22.479z"/>
	<path id="Fill_37" fill="#231F20" d="M179.631,63.627c-5.434,0.153-10.678-2.004-14.432-5.937c-3.782-3.948-5.83-9.244-5.69-14.71
		c-0.144-5.47,1.904-10.771,5.69-14.722c3.758-3.924,9.001-6.075,14.432-5.921c5.431-0.154,10.674,1.997,14.433,5.921
		c3.784,3.952,5.831,9.252,5.684,14.722c0.146,5.471-1.9,10.772-5.684,14.727C190.305,61.63,185.062,63.781,179.631,63.627z
		 M179.603,30.047c-3.301-0.133-6.485,1.23-8.666,3.71c-2.177,2.571-3.326,5.856-3.228,9.224c-0.103,3.367,1.046,6.652,3.224,9.221
		c2.197,2.492,5.401,3.857,8.72,3.717c3.302,0.133,6.486-1.232,8.666-3.717c2.181-2.567,3.332-5.854,3.23-9.221
		c0.099-3.368-1.052-6.653-3.23-9.224C186.121,31.27,182.919,29.907,179.603,30.047z"/>
	<path id="Fill_39" fill="#231F20" d="M208.443,46.539v-7.683h19.71c3.3-0.061,4.994-1.575,5.085-4.543
		c-0.092-2.716-1.759-4.129-5-4.24l-19.77,0.029v-7.764h17.881c9.564,0,14.348,3.963,14.349,11.89c0,5.967-2.515,9.767-7.542,11.4
		l10.223,18h-9.399l-9.818-17.068L208.443,46.539z"/>
	<path id="Fill_41" fill="#231F20" d="M282.495,22.256v7.707l-12.817,0.082v33.583h-8.201V30.045l-12.771-0.082v-7.707H282.495z"/>
	<path id="Fill_43" fill="#231F20" d="M291.131,22.479h8.281v41.15h-8.171L291.131,22.479z"/>
	<path id="Fill_45" fill="#231F20" d="M310.32,63.627v-41.29h2.733l17.687,21.634l17.88-21.634h2.733v41.29h-8.2l-0.033-22.158
		l-12.38,13.927l-12.22-13.927v22.158H310.32z"/>
	<path id="Fill_47" fill="#231F20" d="M391.724,63.629h-30.07v-7.771l30.07,0.062V63.629z M386.286,46.536L386.286,46.536
		l-24.632-0.029v-7.647h24.632V46.536z M391.786,30.048h-30.132v-7.677h30.128v7.677H391.786z"/>
	<path id="Fill_49" fill="#231F20" d="M418.074,55.398c7.273-0.021,10.918-4.159,10.933-12.414
		c-0.013-8.263-3.656-12.392-10.933-12.389h-15.8v-8.284h15.8c12.76,0,19.139,6.891,19.139,20.673
		c0,13.763-6.379,20.644-19.137,20.644h-15.802v-8.229H418.074z"/>
	<path id="Fill_51" fill="#231F20" d="M120.709,46.446v-7.646h24.628v7.682L120.709,46.446z"/>
</g>
</svg>
