<?xml version="1.0" encoding="utf-8"?>
<!-- Generator: Adobe Illustrator 15.0.0, SVG Export Plug-In . SVG Version: 6.00 Build 0)  -->
<!DOCTYPE svg PUBLIC "-//W3C//DTD SVG 1.1//EN" "http://www.w3.org/Graphics/SVG/1.1/DTD/svg11.dtd">
<svg version="1.1" id="Logo_2" xmlns="http://www.w3.org/2000/svg" xmlns:xlink="http://www.w3.org/1999/xlink" x="0px" y="0px"
	 width="116px" height="130px" viewBox="0 0 116 130" enable-background="new 0 0 116 130" xml:space="preserve">
<g id="Group" transform="translate(0.656 1.132)">
	<path id="Fill_6" fill="#38B449" d="M56.007,101.235L56.007,101.235L5.172,50.616l38.986-38.735l9.981-1.955l-6.8-1.2l3.924-3.9
		l3.79,2.874l-2.539-4.119L56.118,0l3.437,3.431L56.927,7.7l3.922-2.981l3.972,3.968l-6.978,1.238l10.222,2l38.74,38.686
		l-50.8,50.618L56.007,101.235z M56.091,11.449L56.091,11.449l-5.119,27.159l5.08,27.408l5.12-27.156l-5.079-27.41L56.091,11.449z
		 M57.421,10.913L57.421,10.913l16.024,22.825l22.988,15.379L80.412,26.293L57.421,10.913z M54.556,10.913l-22.991,15.38
		L15.542,49.117l22.992-15.379L54.556,10.913z"/>
	<path id="Fill_7" fill="#008B40" d="M5.172,50.592l50.836,15.672l50.797-15.672l-50.8,50.685L5.172,50.592z"/>
	<path id="Fill_8" fill="#FEFEFE" d="M53.272,70.766v6.908h-6.921v5.43h6.921v6.908h5.433v-6.908h6.92v-5.43h-6.92v-6.908H53.272z"
		/>
	<path id="Fill_15" fill="#231F20" d="M0,113.791h2.972v14.647H0.039L0,113.791z"/>
	<path id="Fill_16" fill="#231F20" d="M9.137,113.791h2.973v14.647H9.177L9.137,113.791z"/>
	<path id="Fill_17" fill="#231F20" d="M22.636,128.442c-1.947,0.055-3.828-0.713-5.18-2.116c-1.354-1.401-2.089-3.288-2.04-5.235
		c-0.051-1.951,0.684-3.84,2.04-5.242c1.354-1.398,3.234-2.162,5.18-2.106c1.946-0.057,3.826,0.708,5.18,2.106
		c1.357,1.402,2.093,3.291,2.042,5.242c0.05,1.949-0.686,3.838-2.042,5.241C26.462,127.731,24.582,128.497,22.636,128.442z
		 M22.628,116.486c-1.183-0.05-2.326,0.435-3.112,1.321c-0.78,0.912-1.193,2.082-1.157,3.283c-0.037,1.199,0.376,2.37,1.157,3.282
		c0.792,0.89,1.941,1.375,3.13,1.323c1.183,0.049,2.325-0.438,3.11-1.323c0.782-0.911,1.195-2.082,1.16-3.282
		c0.036-1.201-0.378-2.371-1.16-3.283C24.964,116.92,23.816,116.434,22.628,116.486z"/>
	<path id="Fill_19" fill="#231F20" d="M32.977,122.354v-2.734h7.073c1.185-0.021,1.793-0.559,1.827-1.616
		c-0.034-0.968-0.633-1.472-1.8-1.51l-7.094,0.01v-2.762h6.42c3.433,0,5.15,1.411,5.15,4.231c0,2.123-0.903,3.475-2.708,4.057
		l3.67,6.412H42.14l-3.522-6.079L32.977,122.354z"/>
	<path id="Fill_21" fill="#231F20" d="M59.554,113.712v2.744l-4.6,0.03v11.952h-2.945v-11.952l-4.582-0.03v-2.744H59.554z"/>
	<path id="Fill_23" fill="#231F20" d="M62.655,113.791h2.973v14.647h-2.932L62.655,113.791z"/>
	<path id="Fill_25" fill="#231F20" d="M69.541,128.442v-14.7h0.98l6.348,7.7l6.418-7.7h0.98v14.7h-2.943l-0.01-7.889l-4.445,4.957
		l-4.385-4.959v7.891H69.541z"/>
	<path id="Fill_27" fill="#231F20" d="M98.758,128.438H87.965v-2.764l10.793,0.021v2.74V128.438z M96.804,122.352L96.804,122.352
		l-8.839-0.008v-2.723h8.839V122.352z M98.778,116.481H87.965v-2.729h10.813v2.733V116.481z"/>
	<path id="Fill_29" fill="#231F20" d="M108.215,125.509c2.609-0.008,3.918-1.48,3.925-4.42c-0.007-2.939-1.315-4.409-3.925-4.408
		h-5.671v-2.949h5.671c4.578,0,6.867,2.453,6.867,7.357c0.002,4.904-2.288,7.354-6.867,7.348h-5.671v-2.928H108.215z"/>
	<path id="Fill_31" fill="#231F20" d="M1.49,122.323V119.6h8.839v2.734L1.49,122.323z"/>
</g>
</svg>
