<svg id="cream" xmlns="http://www.w3.org/2000/svg" width="60.02" height="60" viewBox="0 0 60.02 60">
  <path id="Shape" d="M52,60H38a3.967,3.967,0,0,1-2.009-.552A3.96,3.96,0,0,1,34,60H4a4,4,0,0,1-4-4V37a4,4,0,0,1,4-4H9V27a5.015,5.015,0,0,1,5-5H24a5.014,5.014,0,0,1,5,5v6h2.894c-.6-8.279-1.025-13.876-1.3-17.58-.62-8.245-.62-8.245-.6-10.529C29.995,4.406,30,3.8,30,3a3,3,0,0,1,3-3H57a3,3,0,0,1,3,3c0,.684.007,1.16.012,1.579.03,2.191.03,2.191-1.18,18.562-.42,5.682-1,13.464-1.766,24A2,2,0,0,1,56,48.759V56A4,4,0,0,1,52,60ZM38,54c0,.309,0,.592.006.842a5.342,5.342,0,0,1-.52,3.082c.027.007.047.014.066.02a17.609,17.609,0,0,0,3.156.06h2.912c2.019,0,4.731,0,8.382,0a2,2,0,0,0,2-2V54H49.75a3.714,3.714,0,0,1-1.919,1.5,7.787,7.787,0,0,1-2.825.5c-2.22,0-4.084-.785-4.748-2ZM2,56a2,2,0,0,0,2,2H34a2,2,0,0,0,2-2Zm36-7v3h2.36a1.9,1.9,0,0,1,1.659,1.049A3.907,3.907,0,0,0,45,54a3.915,3.915,0,0,0,2.983-.95A1.9,1.9,0,0,1,49.64,52H54V49ZM2,39V54H36V39Zm32-6a3.977,3.977,0,0,1,2.792,1.136A4.02,4.02,0,0,1,38,37V47H55.07L57.924,8H32.075L33.9,33H34ZM4,35a2,2,0,0,0-2,2H36a2,2,0,0,0-2-2Zm7-5v3H27V30H23a1,1,0,1,1,0-2h4V27a3,3,0,0,0-3-3H14a3,3,0,0,0-3,3v1h8a1,1,0,0,1,0,2ZM55,4a1,1,0,0,1,1,1V6h2V3a1,1,0,0,0-1-1H33a1,1,0,0,0-1,1V6h2V5a1,1,0,1,1,2,0V6h2V5a1,1,0,1,1,2,0V6h2V5a1,1,0,1,1,2,0V6h2V5a1,1,0,1,1,2,0V6h2V5a1,1,0,1,1,2,0V6h2V5A1,1,0,0,1,55,4Z" fill="#38b449"/>
  <path id="Shape-2" data-name="Shape" d="M11.248,11.12c-2.679,0-4.7-1.023-5.682-2.88-1.439.294-2.936.54-4.447.732A1.014,1.014,0,0,1,1,8.979,1,1,0,0,1,.867,6.989C2.28,6.809,3.633,6.588,5,6.313,4.8,3.338,7.366.841,11.389.1A6.915,6.915,0,0,1,12.634,0c3.5,0,8.736,1.858,9.3,3.759a1.331,1.331,0,0,1-.843,1.651A7.391,7.391,0,0,0,18.6,7.522a8.78,8.78,0,0,1-5.262,3.4A11.579,11.579,0,0,1,11.248,11.12ZM12.81,3.994h0a1,1,0,0,1,.478,1.879,29.393,29.393,0,0,1-5.648,1.9,4.388,4.388,0,0,0,3.588,1.351,9.75,9.75,0,0,0,1.747-.165c2-.371,3.058-1.557,4.174-2.812a10.816,10.816,0,0,1,2.377-2.18,14.412,14.412,0,0,0-6.717-1.988,5.879,5.879,0,0,0-1.058.088A7.674,7.674,0,0,0,8.339,3.5,3.251,3.251,0,0,0,7.007,5.866a28.938,28.938,0,0,0,5.381-1.778A.992.992,0,0,1,12.81,3.994Z" transform="translate(8.008 41.02)" fill="#38b449"/>
  <path id="Shape-3" data-name="Shape" d="M8,31a1,1,0,0,1-1-1V26.968C4.439,26.8,2.728,25.987,1.619,24.4S0,20.468,0,17C0,9.891,4.031,0,8,0s8,9.891,8,17c0,3.468-.514,5.819-1.619,7.4S11.561,26.8,9,26.968V30A1,1,0,0,1,8,31Zm2.988-13.988a.992.992,0,0,1,.707.293,1,1,0,0,1,.013,1.4L9,21.414v3.552c1.877-.122,3-.64,3.767-1.735C13.609,22.025,14,20.045,14,17,14,9.294,9.634,2,8,2S2,9.294,2,17c0,3.045.392,5.025,1.233,6.231C4,24.326,5.122,24.844,7,24.966V21.414L4.293,18.707a1,1,0,0,1,.013-1.4,1,1,0,0,1,1.4-.013L7,18.586V15.414L4.293,12.707a1,1,0,0,1,.013-1.4,1,1,0,0,1,1.4-.012L7,12.586V8A1,1,0,1,1,9,8v4.585l1.293-1.292a1,1,0,0,1,1.414,1.414L9,15.414v3.172l1.293-1.293A1,1,0,0,1,10.988,17.012Z" transform="translate(37 10)" fill="#38b449"/>
</svg>
