<svg id="employee" xmlns="http://www.w3.org/2000/svg" width="64" height="59.944" viewBox="0 0 64 59.944">
  <path id="Shape" d="M61.967,59.944H33.1a2.02,2.02,0,0,1-1.1-.323,2.027,2.027,0,0,1-1.1.323H2.033A2.035,2.035,0,0,1,0,57.911v-14.7a6.525,6.525,0,0,1,3.869-5.966l.017-.007,8.281-3.21v-1.6a6.956,6.956,0,0,1-2.613-4.361,3.277,3.277,0,0,1-2.066-1.083,3.228,3.228,0,0,1-.8-2.131,3.046,3.046,0,0,1,.728-1.976v-2.6a8.894,8.894,0,0,1,1.808-5.4A9.044,9.044,0,0,1,13.8,11.685a.937.937,0,1,1,.541,1.795,7.15,7.15,0,0,0-5.052,6.8v1.438l.024,0,.242-.048a1.458,1.458,0,0,1,1.5-.964c.05,0,.1,0,.153,0,.222.013.448.02.674.02a13.457,13.457,0,0,0,7.263-2.2,1.482,1.482,0,0,1,1.9.231c.348.374.636.681.875.937A14.858,14.858,0,0,1,23.1,21.018a1.068,1.068,0,0,1,.224.634h0l.07.012.105.019v-1.4a7.106,7.106,0,0,0-5.288-6.869.937.937,0,0,1,.237-1.844.942.942,0,0,1,.24.031,8.869,8.869,0,0,1,3.536,1.851,3.056,3.056,0,0,1,.725-1.876v-2.6a8.978,8.978,0,1,1,17.956,0v2.53a3.244,3.244,0,0,1,.726,1.95,8.971,8.971,0,0,1,14.805,6.822v2.53A3.228,3.228,0,0,1,56.04,27.3a3.285,3.285,0,0,1-1.741.767,6.835,6.835,0,0,1-2.476,4.252v1.707l8.29,3.211.017.007A6.525,6.525,0,0,1,64,43.209v4.063a.938.938,0,1,1-1.876,0V43.209A4.459,4.459,0,0,0,60.845,40a4.793,4.793,0,0,0-1.423-1.023l-4.868-1.885-2.131,4.271a1.466,1.466,0,0,1-2.163.541l-.1-.071-.385.58,2.094,12.374,0,.013c0,.005,0,.01,0,.015a1.5,1.5,0,0,1-.363,1.2l-1.863,2.049H56.53v-13.7a.937.937,0,1,1,1.875,0v13.7h3.562a.158.158,0,0,0,.158-.158V51.647a.937.937,0,1,1,1.875,0v6.264A2.035,2.035,0,0,1,61.967,59.944ZM37.6,43.434a.938.938,0,0,1,.937.938v13.7h6.879L43.549,56.02a1.5,1.5,0,0,1-.364-1.2c0-.008,0-.015,0-.023l2.1-12.379-.385-.58-.1.071a1.455,1.455,0,0,1-.849.272,1.466,1.466,0,0,1-1.314-.812L40.5,37.093l-4.865,1.886a5.034,5.034,0,0,0-1.607,1.227,4.466,4.466,0,0,0-1.094,3v14.7a.158.158,0,0,0,.158.158h3.562v-13.7A.939.939,0,0,1,37.6,43.434Zm-11.191,0a.939.939,0,0,1,.938.938v13.7H30.9a.158.158,0,0,0,.158-.158v-14.7a4.639,4.639,0,0,0-2.7-4.231l-4.868-1.885L21.36,41.364A1.466,1.466,0,0,1,19.2,41.9l-.1-.071-.385.58,2.094,12.374c0,.013,0,.02,0,.028a1.5,1.5,0,0,1-.363,1.2l-1.863,2.049h6.883v-13.7A.939.939,0,0,1,26.405,43.434Zm-19.872,0a.938.938,0,0,1,.937.938v13.7h6.879L12.487,56.02a1.5,1.5,0,0,1-.364-1.2s0-.01,0-.015l0-.013,2.094-12.374-.385-.58-.1.071a1.455,1.455,0,0,1-.849.272,1.466,1.466,0,0,1-1.314-.812L9.442,37.093,4.577,38.979a4.691,4.691,0,0,0-2.7,4.23v14.7a.158.158,0,0,0,.158.158H5.6v-13.7A.939.939,0,0,1,6.533,43.434Zm40.53-.292h0L45.071,54.907l2.458,2.7,2.457-2.7L48,43.142h-.932ZM16,43.142h0L14.009,54.907l2.457,2.7,2.458-2.7L16.933,43.142H16Zm31.529-3.176-1.1.781.345.519h1.512l.345-.519Zm-31.063,0-1.1.781.345.519h1.512l.345-.519Zm3.656-4.178-2.3,2.839,1.572,1.117.5.356,1.84-3.688Zm23.747,0-1.609.624L44.1,40.1l1.461-1.038.609-.433-2.3-2.841Zm-31.063,0-1.609.624,1.84,3.688.5-.355,1.571-1.116-2.3-2.841Zm38.378,0L50.1,37.124,48.992,38.5l-.108.133.568.4.054.038L50.957,40.1,52.8,36.412ZM31.531,31.839h0L30.471,38.1A6.65,6.65,0,0,1,32,39.8a6.653,6.653,0,0,1,1.524-1.7l-1.06-6.267h-.932ZM45.1,33.431v.9l2.425,2.993,2.42-2.987v-.944a6.9,6.9,0,0,1-2.408.437A7.554,7.554,0,0,1,45.1,33.431Zm-31.063,0v.9l2.425,2.993,2.42-2.987v-.944a6.914,6.914,0,0,1-2.408.437A7.553,7.553,0,0,1,14.042,33.431Zm20.586-2.9-.385.58,1.016,6,7.97-3.09v-1.6a6.808,6.808,0,0,1-2.615-4.359,3.305,3.305,0,0,1-2.14-1.179l-1.582,3.172a1.467,1.467,0,0,1-2.163.541Zm-9.163-3.757a3.287,3.287,0,0,1-2.228,1.293,6.845,6.845,0,0,1-2.475,4.25v1.706l7.976,3.089,1.016-6-.385-.58-.1.071a1.468,1.468,0,0,1-2.163-.541ZM42.4,22.593v4.391a5.056,5.056,0,0,0,10.11,0V21.946c-.136-.156-.392-.43-.78-.844-.218-.233-.477-.509-.779-.833A15.4,15.4,0,0,1,42.931,22.6C42.755,22.6,42.576,22.6,42.4,22.593Zm-31.063,0v4.391a4.908,4.908,0,0,0,1.423,3.463,5.158,5.158,0,0,0,3.716,1.507,4.975,4.975,0,0,0,4.97-4.97V21.946c-.137-.158-.4-.437-.794-.859-.216-.231-.471-.5-.766-.819A15.4,15.4,0,0,1,11.871,22.6C11.693,22.6,11.514,22.6,11.338,22.593ZM32,28.663h0l-1.1.782.345.519h1.512l.345-.519L32,28.663Zm3.656-4.178-1.5,1.85-.8.991,1.572,1.117.5.355,1.84-3.688Zm-7.315,0-1.609.623L28.57,28.8l.5-.354,1.572-1.117-2.3-2.84Zm26.048-.908v2.55a1.352,1.352,0,0,0,0-2.55Zm-44.923.053a1.386,1.386,0,0,0-.9,1.22,1.346,1.346,0,0,0,.9,1.276v-2.5Zm31.063,0a1.384,1.384,0,0,0-.9,1.219,1.345,1.345,0,0,0,.9,1.275V23.633Zm-17.2-.054v2.549a1.354,1.354,0,0,0,0-2.549Zm6.25-1.452v.9L32,26.02l2.42-2.987v-.944a6.916,6.916,0,0,1-2.408.437A7.583,7.583,0,0,1,29.573,22.127Zm-4.958-5.454a8.929,8.929,0,0,1,.756,3.607v2.53a3.214,3.214,0,0,1,.414.653l1.913-.742v-1.6a6.951,6.951,0,0,1-2.612-4.361A3.264,3.264,0,0,1,24.615,16.673Zm14.621,0a3.359,3.359,0,0,1-.468.091,6.835,6.835,0,0,1-2.476,4.252v1.707l1.813.7a3.241,3.241,0,0,1,.371-.548v-2.6A8.9,8.9,0,0,1,39.236,16.673Zm8.219-3.495a7.111,7.111,0,0,0-7.1,7.1V21.72l.029-.007.237-.047a1.451,1.451,0,0,1,1.441-.968c.045,0,.092,0,.138,0,.244.016.493.024.741.024a13.65,13.65,0,0,0,7.264-2.2,1.482,1.482,0,0,1,1.9.231c.369.4.67.717.917.981a14.135,14.135,0,0,1,1.14,1.283,1.089,1.089,0,0,1,.224.634l.016,0c.039.007.124.021.159.029v-1.4A7.111,7.111,0,0,0,47.455,13.178ZM26.87,11.29v4.391a5.056,5.056,0,0,0,10.11,0V10.643c-.139-.161-.407-.447-.813-.879l0-.005c-.21-.223-.456-.486-.742-.793A15.393,15.393,0,0,1,27.405,11.3C27.227,11.3,27.047,11.3,26.87,11.29Zm11.985.986v2.551a1.389,1.389,0,0,0,.432-.252,1.352,1.352,0,0,0-.432-2.3Zm-13.861.054h0a1.386,1.386,0,0,0-.9,1.22,1.348,1.348,0,0,0,.9,1.276v-2.5Zm6.93-10.455a7.111,7.111,0,0,0-7.1,7.1v1.438s.247-.051.266-.053a1.492,1.492,0,0,1,1.393-.972c.037,0,.074,0,.11,0,.267.019.541.029.814.029a13.46,13.46,0,0,0,7.267-2.206,1.484,1.484,0,0,1,1.9.231c.35.376.639.685.88.942.654.7.952,1.016,1.136,1.265a1.141,1.141,0,0,1,.265.692c.018,0,.135.023.175.031v-1.4A7.112,7.112,0,0,0,31.924,1.875Z" fill="#38b449"/>
</svg>
