<svg xmlns="http://www.w3.org/2000/svg" width="65.863" height="59.813" viewBox="0 0 65.863 59.813">
  <g id="plant" transform="translate(0 -0.081)">
    <path id="Shape" d="M16.26,29.993a17.01,17.01,0,0,1-5.395-.846,11.352,11.352,0,0,1-4.448-2.668C.665,20.726,0,9.465,0,1.495A1.5,1.5,0,0,1,1.5,0C9.464,0,20.724.665,26.479,6.418c2.338,2.337,3.617,6.1,3.509,10.323A18.075,18.075,0,0,1,29,22.247a11.339,11.339,0,0,1-2.521,4.229C24.309,28.646,20.394,29.993,16.26,29.993ZM3,3A62.178,62.178,0,0,0,4.058,14.673c.9,4.358,2.4,7.618,4.477,9.692,1.657,1.657,4.483,2.607,7.755,2.607,3.371,0,6.465-1,8.074-2.607,3.2-3.2,3.746-12.084,0-15.829-2.074-2.074-5.334-3.58-9.692-4.477A62.178,62.178,0,0,0,3,3Z" transform="translate(0 0.081)" fill="#38b449"/>
    <path id="Shape-2" data-name="Shape" d="M13.731,29.991c-4.131,0-8.045-1.347-10.216-3.515A11.339,11.339,0,0,1,.994,22.247a18.075,18.075,0,0,1-.988-5.506C-.1,12.517,1.177,8.754,3.515,6.418,9.268.665,20.529,0,28.5,0a1.5,1.5,0,0,1,1.495,1.5c0,7.968-.665,19.228-6.418,24.983a11.381,11.381,0,0,1-4.451,2.667A17.024,17.024,0,0,1,13.731,29.991ZM26.992,3A62.182,62.182,0,0,0,15.319,4.055c-4.357.9-7.618,2.4-9.692,4.477-3.745,3.746-3.2,12.633,0,15.83a8.5,8.5,0,0,0,3.454,1.926,15.572,15.572,0,0,0,4.619.681c3.272,0,6.1-.95,7.756-2.607,2.074-2.072,3.58-5.333,4.477-9.69A62.189,62.189,0,0,0,26.992,3Z" transform="translate(35.868 5.997)" fill="#38b449"/>
    <path id="Shape-3" data-name="Shape" d="M41.607,6.894A1.616,1.616,0,0,0,39.5,6.233c-11.469,5.392-17.1,14.795-19.664,24.461C16.668,10.142,7.507,3.877,3.622,1.218A9.393,9.393,0,0,1,2.552.437,1.5,1.5,0,0,0,.437,2.552a12.03,12.03,0,0,0,1.5,1.133C6.314,6.679,17.945,14.637,17.945,46.353a1.5,1.5,0,0,0,2.991,0c0-12.815,3.442-29.709,19.837-37.413,0,0,.242-.117.242-.117A1.386,1.386,0,0,0,41.607,6.894Z" transform="translate(11.962 12.046)" fill="#38b449"/>
  </g>
</svg>
