<svg xmlns="http://www.w3.org/2000/svg" width="57.811" height="59.959" viewBox="0 0 57.811 59.959">
  <g id="entrepreneur" transform="translate(-0.064 -0.02)">
    <path id="Shape" d="M1.324,37.509a.744.744,0,0,1-.745-.737V32.78c0-.022,0-.043,0-.065A5.073,5.073,0,0,1,3.374,28.6a.684.684,0,0,1,.083-.036l4.09-1.475a4.553,4.553,0,0,1-2.783-2.922c-.079,0-.15.005-.216.005a4.641,4.641,0,0,1-.919-.092,4.542,4.542,0,0,1-1.894-8.02A2.838,2.838,0,0,1,1.4,13.917,2.328,2.328,0,0,1,3.227,12.2L3.073,9.952A9.238,9.238,0,0,1,5.555,2.958,9.343,9.343,0,0,1,12.363,0,9.313,9.313,0,0,1,21.65,9.952L21.5,12.19a2.34,2.34,0,0,1,1.818,1.725,2.836,2.836,0,0,1,.081.674,2.8,2.8,0,0,1-.464,1.545,4.852,4.852,0,0,1,1.79,3.489,4.538,4.538,0,0,1-4.54,4.539c-.072,0-.146,0-.219-.005a4.544,4.544,0,0,1-2.772,2.916L21.3,28.56a.614.614,0,0,1,.078.035,5.131,5.131,0,0,1,2.779,4.12.075.075,0,0,1-.008.034.084.084,0,0,0-.009.031v3.992a.708.708,0,0,1-.71.737H1.324Zm19.92-7.167a3.669,3.669,0,0,0-1.352,2.471v3.15h2.7v-3.15a3.241,3.241,0,0,0-1.352-2.471ZM9.356,28.062,5,29.642a5.118,5.118,0,0,1,1.379,3.073.122.122,0,0,1,0,.035.148.148,0,0,0,0,.03v3.183H18.347V32.78a.386.386,0,0,1,0-.044c0-.007,0-.014,0-.02a5.123,5.123,0,0,1,1.387-3.073l-4.434-1.594-2.237,2.973v2.568a.773.773,0,0,1-1.545,0V31.021L9.355,28.062Zm-5.879,2.28h0a3.664,3.664,0,0,0-1.352,2.471v3.15h2.7v-3.15a3.669,3.669,0,0,0-1.352-2.471Zm7.017-5.331v1.874l1.867,2.585,1.867-2.585V25.012a7.748,7.748,0,0,1-1.787.21H12.3A7.789,7.789,0,0,1,10.494,25.011Zm-5.13-2.479a.773.773,0,0,1,.767.673,3,3,0,0,0,1.977,2.435,3.171,3.171,0,0,0,.417.112,3.555,3.555,0,0,0,.424.05V24.517a8.442,8.442,0,0,1-2.718-1.79,8.844,8.844,0,0,1-2.66-5.369,2.792,2.792,0,0,1-.679-.237,3,3,0,0,0,1.046,5.44A3.055,3.055,0,0,0,5.2,22.55.78.78,0,0,1,5.364,22.532Zm16.374-5.375a2.872,2.872,0,0,1-.6.2,8.834,8.834,0,0,1-2.646,5.37,8.426,8.426,0,0,1-2.722,1.791V25.8a3.551,3.551,0,0,0,.434-.051,3.375,3.375,0,0,0,.427-.113A2.985,2.985,0,0,0,18.595,23.2a.774.774,0,0,1,.934-.655,3.051,3.051,0,0,0,1.257.011,2.989,2.989,0,0,0,2.387-2.933A3.53,3.53,0,0,0,21.739,17.158ZM3.655,13.7a.775.775,0,0,0-.751.584,1.319,1.319,0,0,0-.036.309,1.287,1.287,0,0,0,1.282,1.284h.144a.769.769,0,0,1,.773.745,7.3,7.3,0,0,0,14.59,0,.767.767,0,0,1,.771-.745h.141a1.29,1.29,0,0,0,1.282-1.287,1.312,1.312,0,0,0-.036-.313.8.8,0,0,0-.941-.586l-.065,0a.709.709,0,0,1-.079,0h-.059s-.007,0-.01.006-.008.007-.012.007a.02.02,0,0,0-.012.008s-.008.008-.012.008a6.51,6.51,0,0,1-5.112-2.4,6.6,6.6,0,0,1-1.222-3.563l-.651.792a7.621,7.621,0,0,1-6.013,2.912H7.605a3.151,3.151,0,0,0-2.849,1.819.791.791,0,0,1-.05.092l-.009.013-.007.01c-.014.021-.03.04-.046.06l-.007.009-.011.012,0,0,0,0c-.019.02-.039.04-.061.058l-.017.013c-.021.016-.041.031-.063.046l-.024.015a.782.782,0,0,1-.072.039l-.005,0-.009,0a.841.841,0,0,1-.091.032l-.012,0-.012,0c-.018,0-.036.008-.054.011l-.018,0H4.15l-.055,0H4.062s0,0-.006-.007a.034.034,0,0,1,0-.016.039.039,0,0,0,0-.008H3.989a.72.72,0,0,1-.107.008H3.8a.958.958,0,0,0-.113.007ZM15.206,4.649a.762.762,0,0,1,.34.079.771.771,0,0,1,.412.868c-.007.029-.627,2.907.8,4.8a4.669,4.669,0,0,0,3.2,1.695l.155-2.249a7.766,7.766,0,1,0-15.5,0l.076,1.091A4.709,4.709,0,0,1,7.605,9.916H7.62a6.1,6.1,0,0,0,4.813-2.334l.008-.01,2.167-2.641A.771.771,0,0,1,15.206,4.649Z" transform="translate(0.064 10.775)" fill="#38b449"/>
    <path id="Shape-2" data-name="Shape" d="M7.172,9.25H.715A.787.787,0,0,1,0,8.415V1.957a.749.749,0,0,1,.447-.713.721.721,0,0,1,.286-.059.73.73,0,0,1,.527.226L4.014,4.163a18.42,18.42,0,0,1,26.759,3.7.773.773,0,1,1-1.265.889A16.871,16.871,0,0,0,5.112,5.27L7.718,7.885A.807.807,0,0,1,7.172,9.25ZM1.545,3.822V7.706H5.307L3.465,5.825a.186.186,0,0,1-.032-.052.222.222,0,0,0-.026-.045l.006,0,.006,0Z" transform="translate(15.965 0.02)" fill="#38b449"/>
    <path id="Shape-3" data-name="Shape" d="M15.238,9.25h0a18.5,18.5,0,0,1-2.526-.174A18.3,18.3,0,0,1,5.623,6.542,18.31,18.31,0,0,1,.14,1.384.773.773,0,0,1,.7.17c.023,0,.045,0,.068,0A.774.774,0,0,1,1.406.5,16.77,16.77,0,0,0,6.4,5.2a16.769,16.769,0,0,0,6.451,2.329,16.933,16.933,0,0,0,2.387.17A16.925,16.925,0,0,0,25.8,3.981L23.194,1.366A.808.808,0,0,1,23.74,0H30.2a.827.827,0,0,1,.772.835V7.294a.773.773,0,0,1-.772.773.778.778,0,0,1-.547-.226L26.9,5.087A18.466,18.466,0,0,1,15.238,9.25Zm10.368-7.7,1.849,1.881a.238.238,0,0,1,.037.053.3.3,0,0,0,.029.043l0,0,1.9,1.9V1.545Z" transform="translate(15.896 50.73)" fill="#38b449"/>
    <path id="Shape-4" data-name="Shape" d="M12.1,29.8H8.76a2.623,2.623,0,0,1-1.871-.777,2.66,2.66,0,0,1-.773-1.905v-2.34H5.774A.959.959,0,0,1,5,24.387a.9.9,0,0,1-.158-.712l.1-.782a5.625,5.625,0,0,0-1.66-4.846A10.442,10.442,0,0,1,9.775.021C9.993.007,10.214,0,10.432,0A10.446,10.446,0,0,1,20.854,10.154,10.379,10.379,0,0,1,18,17.624c-.135.143-.279.287-.427.426a5.475,5.475,0,0,0-1.653,4.326l.072,1.362a.148.148,0,0,1,0,.02,1,1,0,0,1-.28.724,1.011,1.011,0,0,1-.712.31.08.08,0,0,1-.021-.006.079.079,0,0,0-.021-.006h-.219v2.34a2.66,2.66,0,0,1-.773,1.905A2.623,2.623,0,0,1,12.1,29.8ZM7.618,27.355a1.144,1.144,0,0,0,1.175.9h3.272a1.144,1.144,0,0,0,1.175-.9Zm.043-2.576v1.031H13.2V24.779Zm2.752-11.607a2.425,2.425,0,0,1,1.724.72,2.454,2.454,0,0,1,.708,1.729,2.423,2.423,0,0,1-1.708,2.322v5.292h3.285l-.041-.783a6.981,6.981,0,0,1,2.135-5.525c.128-.121.251-.243.366-.365a8.9,8.9,0,0,0,.686-11.407,8.938,8.938,0,0,0-7.157-3.609c-.179,0-.361.006-.541.016A8.894,8.894,0,0,0,4.349,16.919a7.161,7.161,0,0,1,2.13,6.17l-.021.146H9.592V17.942A2.514,2.514,0,0,1,7.941,15.62,2.481,2.481,0,0,1,10.413,13.172Zm.016,1.545a.905.905,0,1,0,.346.069A.9.9,0,0,0,10.429,14.716Z" transform="translate(37.017 14.62)" fill="#38b449"/>
  </g>
</svg>
